<svg width="255" height="255" viewBox="0 0 255 255" fill="none" xmlns="http://www.w3.org/2000/svg">
<rect width="255" height="255" rx="21" fill="black"/>
<path d="M74.0827 148.72C82.3386 139.81 88.2378 136.781 110.891 129.993C163.621 114.177 170.967 111.316 177.248 104.233C187.476 92.4405 187.016 73.8277 176.086 61.9765C170.523 56.0077 159.091 51.6741 151.315 52.5869C138.918 54.1606 130.014 60.5566 125.353 71.4017C121.242 80.7307 119.192 86.2474 123.799 97.3066L123.163 98.7433L116.363 101.747C112.07 103.256 108.518 103.502 107.636 103.113C109.454 108.018 106.754 102.724 107.636 103.113C99.499 81.4697 105.123 59.6743 122.611 45.217C134.932 35.0497 151.838 31.476 167.339 35.6084C190.569 41.8563 206.403 65.9527 203.157 90.3202C201.534 102.504 193.107 116.849 183.606 123.803C177.949 127.877 164.496 133.442 149.452 137.836C129.157 143.787 102.223 152.323 97.6152 154.28C86.238 159.117 78.3389 171.467 78.8378 183.882C79.8499 210.009 108.634 223.042 129.686 206.872C134.126 203.434 135.34 201.741 138.207 195.5C142.317 186.171 142.235 179.45 137.605 167.912C134.605 160.376 134.516 159.516 136.459 158.027C139.098 156.023 145.94 153.136 147.901 154C150.449 155.123 159.243 172.99 159.415 180.57C160.536 219.995 118.742 245.789 85.5691 226.248C77.224 221.281 75.5234 219.829 70.4709 213.498C55.8697 195.105 57.4845 166.735 74.0827 148.72Z" fill="url(#paint0_radial_8_102)"/>
<path d="M183.962 111.842C175.328 120.387 169.304 123.158 146.379 128.961C93.0146 142.483 85.5514 145.024 78.9706 151.829C68.2422 163.169 67.8976 181.784 78.3049 194.096C83.6046 200.3 94.8396 205.124 102.647 204.548C115.101 203.511 124.273 197.506 129.398 186.872C133.908 177.73 134.019 170.725 129.894 159.477L126.545 150.287L134.536 147.887C138.89 146.565 143.199 145.819 144.063 146.245C144.928 146.671 146.865 150.977 148.469 155.956C155.663 177.931 149.103 199.463 131.006 213.151C118.257 222.776 101.212 225.616 85.9043 220.818C62.9664 213.572 48.1886 188.814 52.4843 164.609C54.6321 152.507 63.6712 138.539 73.4637 132.002C79.2918 128.177 92.9727 123.199 108.193 119.459C128.725 114.391 156.004 107.026 160.691 105.27C172.267 100.929 180.692 88.9317 180.73 76.5066C180.848 50.3611 152.655 36.0959 130.924 51.3416C126.339 54.5841 125.053 56.2231 121.919 62.3349C117.409 71.4775 117.201 78.1949 121.328 89.9226C123.999 97.5816 124.051 98.4448 122.045 99.8484C114.297 105.27 108.982 103.815 107.061 102.867C104.564 101.636 99.9294 83.9145 100.086 76.334C100.669 36.8973 143.539 12.9338 175.836 33.8897C183.959 39.2123 185.595 40.7373 190.369 47.28C204.162 66.2875 201.323 94.5607 183.962 111.842Z" fill="url(#paint1_radial_8_102)"/>
<defs>
<radialGradient id="paint0_radial_8_102" cx="0" cy="0" r="1" gradientUnits="userSpaceOnUse" gradientTransform="translate(131.792 133.292) rotate(23.7778) scale(54 108.5)">
<stop stop-color="#BD7AD1"/>
<stop offset="0.5" stop-color="#3C3C3C"/>
<stop offset="1" stop-color="#010101"/>
</radialGradient>
<radialGradient id="paint1_radial_8_102" cx="0" cy="0" r="1" gradientUnits="userSpaceOnUse" gradientTransform="translate(125.64 124.761) rotate(-153.746) scale(54 108.5)">
<stop stop-color="#FA5C29"/>
<stop offset="0.5" stop-color="#F68515"/>
<stop offset="1" stop-color="#BD7AD1"/>
</radialGradient>
</defs>
</svg>
